{"title":"The.Hunt.For.Red.October.1990.BDRip.H264.AAC.5.1ch.Gopo","uid":5237921,"size":2437692153,"categoryP":"video","categoryS":"hd___movies","magnet":"?xt=urn:btih:d7765efc428e3d3b7e99f6d2a10664625cf2ee52&amp;dn=The.Hunt.For.Red.October.1990.BDRip.H264.AAC.5.1ch.Gopo&amp;tr=udp%3A%2F%2Ftracker.openbittorrent.com%3A80&amp;tr=udp%3A%2F%2Fopen.demonii.com%3A1337&amp;tr=udp%3A%2F%2Ftracker.coppersurfer.tk%3A6969&amp;tr=udp%3A%2F%2Fexodus.desync.com%3A6969","seeders":1,"leechers":0,"uploader":"kriss_kringle","files":-1,"time":1261610580,"description":"General\n      Complete name : The.Hunt.For.Red.October.1990.BDRip.H264.AAC.5.1ch.Gopo.mp4\n      Format : MPEG-4\n      Format profile : Base Media\n      Codec ID : isom\n      File size : 2.25 GiB\n      Duration : 2h 15mn\n      Overall bit rate : 2 387 Kbps\n      Encoded date : UTC 2009-12-22 21:44:42\n      Tagged date : UTC 2009-12-22 21:44:42\n      Writing application : Yamb 2.1.0.0 [http://yamb.unite-video.com]\n   Video #1\n      ID : 1\n      Format : AVC\n      Format/Info : Advanced Video Codec\n      Format profile : &lt;a class=&quot;__cf_email__&quot; href=&quot;/cdn-cgi/l/email-protection&quot; data-cfemail=&quot;450d2c222d0509716b74&quot;&gt;[email&amp;#160;protected]&lt;/a&gt;&lt;script cf-hash='f9e31' type=&quot;text/javascript&quot;&gt;\n/* &lt;![CDATA[ */!function(){try{var t=&quot;currentScript&quot;in document?document.currentScript:function(){for(var t=document.getElementsByTagName(&quot;script&quot;),e=t.length;e--;)if(t[e].getAttribute(&quot;cf-hash&quot;))return t[e]}();if(t&amp;&amp;t.previousSibling){var e,r,n,i,c=t.previousSibling,a=c.getAttribute(&quot;data-cfemail&quot;);if(a){for(e=&quot;&quot;,r=parseInt(a.substr(0,2),16),n=2;a.length-n;n+=2)i=parseInt(a.substr(n,2),16)^r,e+=String.fromCharCode(i);e=document.createTextNode(e),c.parentNode.replaceChild(e,c)}}}catch(u){}}();/* ]]&gt; */&lt;/script&gt;\n      Format settings, CABAC : Yes\n      Format settings, ReFrames : 5 frames\n      Codec ID : avc1\n      Codec ID/Info : Advanced Video Coding\n      Duration : 2h 15mn\n      Bit rate mode : Variable\n      Bit rate : 2 021 Kbps\n      Maximum bit rate : 9 263 Kbps\n      Width : 1 280 pixels\n      Height : 544 pixels\n      Display aspect ratio : 2.35:1\n      Frame rate mode : Constant\n      Frame rate : 23.976 fps\n      Resolution : 24 bits\n      Colorimetry : 4:2:0\n      Scan type : Progressive\n      Bits/(Pixel*Frame) : 0.121\n      Stream size : 1.91 GiB (85%)\n      Writing library : x264 core 79 r1360 528c100\n      Encoding settings : cabac=1 / ref=5 / deblock=1:0:0 / analyse=0x3:0x113 / me=umh / subme=8 / psy=1 / psy_rd=1.0:0.0 / mixed_ref=1 / me_range=16 / chroma_me=1 / trellis=2 / 8x8dct=1 / cqm=0 / deadzone=21,11 / chroma_qp_offset=-2 / threads=1 / nr=0 / decimate=1 / mbaff=0 / constrained_intra=0 / bframes=3 / b_pyramid=0 / b_adapt=2 / b_bias=0 / direct=3 / wpredb=1 / wpredp=2 / keyint=250 / keyint_min=25 / scenecut=40 / rc_lookahead=30 / rc=2pass / mbtree=1 / bitrate=2021 / ratetol=1.0 / qcomp=0.50 / qpmin=10 / qpmax=51 / qpstep=4 / cplxblur=20.0 / qblur=0.5 / vbv_maxrate=24000 / vbv_bufsize=24000 / ip_ratio=1.10 / aq=1:1.00\n      Encoded date : UTC 2009-12-21 07:33:40\n      Tagged date : UTC 2009-12-22 21:46:46\n   Audio #2\n      ID : 2\n      Format : AAC\n      Format/Info : Advanced Audio Codec\n      Format version : Version 4\n      Format profile : LC\n      Format settings, SBR : No\n      Codec ID : 40\n      Duration : 2h 15mn\n      Bit rate mode : Variable\n      Bit rate : 363 Kbps\n      Maximum bit rate : 454 Kbps\n      Channel(s) : 6 channels\n      Channel positions : Front: L C R, Rear: L R, LFE\n      Sampling rate : 48.0 KHz\n      Resolution : 16 bits\n      Stream size : 351 MiB (15%)\n      Encoded date : UTC 2009-12-22 21:46:29\n      Tagged date : UTC 2009-12-22 21:46:46\n\tSample : YES\n\tSubtitle : English,Romanian\n\nPLOT\n\nRed October is a new Soviet Submarine. When the Americans are given photographs of it, they are extremely curious as to why is it so special. Jack Ryan, a CIA analyst, consults with a friend, who deduces that it's equipped with a new engine that can make it run virtually silent and with such a device, they can position themselves on the outskirts of any coastal city and launch their missles and not give their target any warning. Marko Ramius the sub's captain kills their political officer after they open their orders which basically has them conducting routine maneuvers but he kills him and burns their orders and replaces it. He then tells the crew that they are going to test their new engine by positioning themselves by New York and run missile drills. Ryan is then called by his boss to attend a briefing that concerns Red October. It is at this briefing that they discover that Ramius sent a letter to high ranking Soviet official, who after reading the letter went to meet with the Soviet Premier and it was shortly after that meeting that the Soviet navy was deployed to find Red October and sink it. Everyone assumes that Ramius has turned rogue but Ryan who once did research on Ramius assumes that he might be trying to defect. While everyone dismisses him, the National Security Adviser tells Ryan to go out there and find out for sure if he is right cause once Ramius is in position to fire his missiles they have take him out. Ryan reluctantly goes and is not use to fieldwork, is having a hard time coping with the sea. At the same time someone in the Red October crew knows that Ramius has deviated from his assignment and is doing what he can to stop him.\nDirector: John McTiernan\nCASTING \n     \n      Sean Connery\t... \tMarko Ramius\n\tAlec Baldwin\t... \tJack Ryan\n\tScott Glenn\t... \tBart Mancuso\n\tSam Neill\t... \tCaptain Borodin\n\tJames Earl Jones\t... \tAdmiral Greer\n\tJoss Ackland\t... \tAndrei Lysenko\n\tRichard Jordan\t... \tJeffrey Pelt\n\tPeter Firth\t... \tIvan Putin\n\tTim Curry\t... \tDr. Petrov\n\tCourtney B. Vance\t... \tSeaman Jones\n\tStellan SkarsgÃƒÂ¥rd\t... \tCaptain Tupolev\n\tJeffrey Jones\t... \tSkip Tyler\n\tTimothy Carhart\t... \tBill Steiner\n\tLarry Ferguson\t... \tChief of the Boat\n\tFred Dalton Thompson\t... \tAdmiral Painter\n\nSOURCE: The.Hunt.For.Red.October.1990.720P.BDRip.X264-TLF.mkv\n\nNotes: For best performance I suggest you to use KMPlayer(find it with google) for playback\nI haven't tested the movies on a PS3 or Xbox or other devices than PC because I don't own one of them but feel free to test them if you have the oportunity.\n","torrent":{"xt":"urn:btih:d7765efc428e3d3b7e99f6d2a10664625cf2ee52","amp;dn":"The.Hunt.For.Red.October.1990.BDRip.H264.AAC.5.1ch.Gopo","amp;tr":["udp%3A%2F%2Ftracker.openbittorrent.com%3A80","udp%3A%2F%2Fopen.demonii.com%3A1337","udp%3A%2F%2Ftracker.coppersurfer.tk%3A6969","udp%3A%2F%2Fexodus.desync.com%3A6969"],"infoHash":"d7765efc428e3d3b7e99f6d2a10664625cf2ee52","infoHashBuffer":{"type":"Buffer","data":[215,118,94,252,66,142,61,59,126,153,246,210,161,6,100,98,92,242,238,82]},"announce":[],"urlList":[]}}